<svg xmlns="http://www.w3.org/2000/svg" xmlns:xlink="http://www.w3.org/1999/xlink" viewBox="0 0 291.5 121.14"><defs><style>.cls-1,.cls-10,.cls-11,.cls-12,.cls-13,.cls-14,.cls-15,.cls-16,.cls-17,.cls-18,.cls-19,.cls-2,.cls-20,.cls-21,.cls-22,.cls-24,.cls-25,.cls-26,.cls-3,.cls-4,.cls-5,.cls-6,.cls-7,.cls-8,.cls-9{fill-rule:evenodd;}.cls-1{fill:url(#linear-gradient);}.cls-2{fill:url(#linear-gradient-2);}.cls-3{fill:url(#linear-gradient-3);}.cls-4{fill:url(#linear-gradient-4);}.cls-5{fill:url(#linear-gradient-5);}.cls-6{fill:url(#linear-gradient-6);}.cls-7{fill:url(#linear-gradient-7);}.cls-8{fill:url(#linear-gradient-8);}.cls-9{fill:url(#linear-gradient-9);}.cls-10{fill:url(#linear-gradient-10);}.cls-11{fill:url(#linear-gradient-11);}.cls-12{fill:url(#linear-gradient-12);}.cls-13{fill:url(#linear-gradient-13);}.cls-14{fill:url(#linear-gradient-14);}.cls-15{fill:url(#linear-gradient-15);}.cls-16{fill:url(#linear-gradient-16);}.cls-17{fill:url(#linear-gradient-17);}.cls-18{fill:url(#linear-gradient-18);}.cls-19{fill:url(#linear-gradient-19);}.cls-20{fill:url(#linear-gradient-20);}.cls-21{fill:url(#linear-gradient-21);}.cls-22{fill:url(#linear-gradient-22);}.cls-23{fill:url(#linear-gradient-23);}.cls-24{fill:url(#linear-gradient-24);}.cls-25{fill:url(#linear-gradient-25);}.cls-26{fill:url(#linear-gradient-26);}</style><linearGradient id="linear-gradient" x1="777.71" y1="60.57" x2="892.66" y2="60.57" gradientTransform="matrix(-1, 0, 0, 1, 1069.21, 0)" gradientUnits="userSpaceOnUse"><stop offset="0" stop-color="#8b672e"/><stop offset="1" stop-color="#d9cb94"/></linearGradient><linearGradient id="linear-gradient-2" x1="144.33" y1="101.55" x2="148.4" y2="101.55" gradientUnits="userSpaceOnUse"><stop offset="0" stop-color="#cdbc85"/><stop offset="1" stop-color="#98783f"/></linearGradient><linearGradient id="linear-gradient-3" x1="151.03" y1="93.04" x2="156.7" y2="93.04" xlink:href="#linear-gradient-2"/><linearGradient id="linear-gradient-4" x1="130.93" y1="101.03" x2="141.76" y2="101.03" xlink:href="#linear-gradient-2"/><linearGradient id="linear-gradient-5" x1="156.7" y1="97.68" x2="172.68" y2="97.68" xlink:href="#linear-gradient-2"/><linearGradient id="linear-gradient-6" x1="123.2" y1="94.59" x2="136.08" y2="94.59" xlink:href="#linear-gradient-2"/><linearGradient id="linear-gradient-7" x1="161.86" y1="89.43" x2="177.84" y2="89.43" xlink:href="#linear-gradient-2"/><linearGradient id="linear-gradient-8" x1="108.76" y1="92.53" x2="130.93" y2="92.53" xlink:href="#linear-gradient-2"/><linearGradient id="linear-gradient-9" x1="108.76" y1="82.73" x2="126.81" y2="82.73" xlink:href="#linear-gradient-2"/><linearGradient id="linear-gradient-10" x1="165.98" y1="84.8" x2="191.24" y2="84.8" xlink:href="#linear-gradient-2"/><linearGradient id="linear-gradient-11" x1="168.56" y1="76.03" x2="195.88" y2="76.03" xlink:href="#linear-gradient-2"/><linearGradient id="linear-gradient-12" x1="100" y1="75.52" x2="124.23" y2="75.52" xlink:href="#linear-gradient-2"/><linearGradient id="linear-gradient-13" x1="170.11" y1="65.72" x2="191.24" y2="65.72" xlink:href="#linear-gradient-2"/><linearGradient id="linear-gradient-14" x1="94.33" y1="65.98" x2="122.68" y2="65.98" xlink:href="#linear-gradient-2"/><linearGradient id="linear-gradient-15" x1="100.52" y1="56.19" x2="123.71" y2="56.19" xlink:href="#linear-gradient-2"/><linearGradient id="linear-gradient-16" x1="169.08" y1="55.93" x2="195.88" y2="55.93" xlink:href="#linear-gradient-2"/><linearGradient id="linear-gradient-17" x1="166.5" y1="46.65" x2="191.76" y2="46.65" xlink:href="#linear-gradient-2"/><linearGradient id="linear-gradient-18" x1="90.21" y1="43.3" x2="126.29" y2="43.3" xlink:href="#linear-gradient-2"/><linearGradient id="linear-gradient-19" x1="162.37" y1="38.92" x2="184.54" y2="38.92" xlink:href="#linear-gradient-2"/><linearGradient id="linear-gradient-20" x1="157.22" y1="35.31" x2="171.65" y2="35.31" xlink:href="#linear-gradient-2"/><linearGradient id="linear-gradient-21" x1="120.11" y1="34.54" x2="135.57" y2="34.54" xlink:href="#linear-gradient-2"/><linearGradient id="linear-gradient-22" x1="101.55" y1="35.57" x2="130.41" y2="35.57" xlink:href="#linear-gradient-2"/><linearGradient id="linear-gradient-23" x1="144.33" y1="28.35" x2="148.46" y2="28.35" xlink:href="#linear-gradient-2"/><linearGradient id="linear-gradient-24" x1="130.41" y1="28.09" x2="141.24" y2="28.09" xlink:href="#linear-gradient-2"/><linearGradient id="linear-gradient-25" x1="151.55" y1="25" x2="164.44" y2="25" xlink:href="#linear-gradient-2"/><linearGradient id="linear-gradient-26" x1="0" y1="60.57" x2="114.95" y2="60.57" gradientTransform="matrix(1, 0, 0, 1, 0, 0)" xlink:href="#linear-gradient"/></defs><g id="Layer_2" data-name="Layer 2"><g id="Layer_1-2" data-name="Layer 1"><path class="cls-1" d="M211.09,8.76a266.46,266.46,0,0,1,68.55,37.63c4.13,3.1,11.86,9.8,11.86,13.92,0,9.28-34,29.38-36.08,30.41a199.26,199.26,0,0,1-23.2,12.37,196,196,0,0,1-35.05,13.41c-6.19,1.54-13.92,3.61-20.62,4.64,27.84-16.5,37.11-38.66,37.11-60.83,0-21.13-8.24-43.3-36.6-60.31A157.68,157.68,0,0,1,211.09,8.76Z"/><path class="cls-2" d="M147.94,89.18c0,4.12,1,2.57,0,25.26h-3.61V88.66A10,10,0,0,0,147.94,89.18Z"/><path class="cls-3" d="M156.7,97.42a9.46,9.46,0,0,0-3.6,1c-.52-3.1-1.55-6.71-2.07-9.8a8.53,8.53,0,0,0,2.58-1C154.64,90.72,155.67,94.33,156.7,97.42Z"/><path class="cls-4" d="M141.76,88.66l-5.68,25.78a15.13,15.13,0,0,1-5.15-1l8.25-25.77C139.69,88.15,141.24,88.15,141.76,88.66Z"/><path class="cls-5" d="M172.68,107.22a45,45,0,0,0-4.12,2.58L156.7,86.6c.52-.52.52-1,2.07-1C159.8,85.57,168.56,100,172.68,107.22Z"/><path class="cls-6" d="M136.08,86.6l-8.76,17a30.67,30.67,0,0,1-4.12-2.06c3.09-5.16,9.28-16,10.82-16A2.65,2.65,0,0,1,136.08,86.6Z"/><path class="cls-7" d="M177.84,94.33l-3.09,3.09L161.86,83.51c0-.52,1-1.55,1.54-2.07Z"/><path class="cls-8" d="M130.93,83l-19.07,20.62-3.1-3.09,20.11-19.08C129.38,81.44,129.9,82.48,130.93,83Z"/><path class="cls-9" d="M126.81,78.35c-4.64,3.09-10.31,6.7-16,10.31a15.87,15.87,0,0,1-2.07-3.09c5.68-3.09,11.35-6.19,17-8.76C125.78,77.32,126.29,77.84,126.81,78.35Z"/><path class="cls-10" d="M191.24,89.18a30.28,30.28,0,0,0-2.06,4.12L166,78.87a4.72,4.72,0,0,1,1.55-2.58Z"/><path class="cls-11" d="M171.65,71.14l24.23,5.67a16.18,16.18,0,0,1-1,4.12L168.56,73.2c.52-.52.52-2.06.52-2.06Z"/><path class="cls-12" d="M124.23,73.2l-22.68,7.21A35.07,35.07,0,0,1,100,76.29c7.22-2.06,15.47-4.12,23.2-5.67A8.53,8.53,0,0,0,124.23,73.2Z"/><path class="cls-13" d="M191.24,67.53H170.11V63.92c3.6.51,7.21,0,21.13,0Z"/><polygon class="cls-14" points="122.68 68.04 94.85 68.04 94.33 63.92 122.68 63.92 122.68 68.04"/><path class="cls-15" d="M123.71,58.25a6.59,6.59,0,0,0-.51,3.09L100.52,56.7a15.82,15.82,0,0,1,1-5.67Z"/><path class="cls-16" d="M195.88,55.16l-26.29,6.18c0-1-.51-2.06-.51-3.09l25.77-7.73A15,15,0,0,0,195.88,55.16Z"/><path class="cls-17" d="M191.76,42.78,168,55.16a11.43,11.43,0,0,1-1.54-2.58l22.68-14.43A13.62,13.62,0,0,1,191.76,42.78Z"/><path class="cls-18" d="M126.29,52.58c0,.51-1,1.54-1.55,2.58l-34.53-18a54.69,54.69,0,0,0,3.09-5.67Z"/><path class="cls-19" d="M184.54,30.93,164.44,50l-2.07-2.06,18.56-20.1A19.07,19.07,0,0,1,184.54,30.93Z"/><path class="cls-20" d="M171.65,27.32,159.8,45.88a11.41,11.41,0,0,0-2.58-1.55l10.31-19.59A48.21,48.21,0,0,1,171.65,27.32Z"/><path class="cls-21" d="M135.57,43.82A5.2,5.2,0,0,1,133,45.88L120.11,26.29a36.42,36.42,0,0,1,4.63-3.09Z"/><path class="cls-22" d="M130.41,47.42c0,.52-1,1.55-2.06,2.58l-26.8-23.71a41.53,41.53,0,0,1,4.64-5.16Z"/><rect class="cls-23" x="144.33" y="14.95" width="4.12" height="26.8"/><path class="cls-24" d="M141.24,42.27a22.86,22.86,0,0,1-2.58.51l-8.25-28.35a9.43,9.43,0,0,0,3.61-1C136.6,22.68,139.18,32.47,141.24,42.27Z"/><path class="cls-25" d="M164.44,8.76l-10.31,34a22.86,22.86,0,0,0-2.58-.51l7.73-35.05C160.83,7.73,162.89,8.25,164.44,8.76Z"/><path class="cls-26" d="M114.44,0c-28.36,17-36.6,39.18-36.6,60.31,0,22.17,9.27,44.33,37.11,60.83-6.7-1-14.43-3.1-20.62-4.64a196,196,0,0,1-35-13.41,199.26,199.26,0,0,1-23.2-12.37C34,89.69,0,69.59,0,60.31c0-4.12,7.73-10.82,11.86-13.92A266.46,266.46,0,0,1,80.41,8.76,157.68,157.68,0,0,1,114.44,0Z"/></g></g></svg>